<?xml version="1.0" encoding="utf-8"?>
<!-- Generator: Adobe Illustrator 27.8.0, SVG Export Plug-In . SVG Version: 6.00 Build 0)  -->
<svg version="1.0" id="Logo_00000158727625646119494500000015711314265259652764_"
	 xmlns="http://www.w3.org/2000/svg" xmlns:xlink="http://www.w3.org/1999/xlink" x="0px" y="0px" viewBox="0 0 1194.4 846.11"
	 style="enable-background:new 0 0 1194.4 846.11;" xml:space="preserve">
<style type="text/css">
	.st0{fill:#0866FF;}
	.st1{fill:#FFFFFF;}
</style>
<g id="Logo">
	<path id="Initiator" class="st0" d="M847.2,423.05c0-138.07-111.93-250-250-250s-250,111.93-250,250
		c0,117.24,80.72,215.62,189.61,242.64V499.45h-51.55v-76.4h51.55v-32.92c0-85.09,38.51-124.53,122.05-124.53
		c15.84,0,43.17,3.11,54.35,6.21v69.25c-5.9-0.62-16.15-0.93-28.88-0.93c-40.99,0-56.83,15.53-56.83,55.9v27.02h81.66l-14.03,76.4
		h-67.63v171.77C751.27,656.27,847.2,550.87,847.2,423.05z"/>
	<path id="F" class="st1" d="M695.12,499.45l14.03-76.4h-81.66v-27.02c0-40.37,15.84-55.9,56.83-55.9c12.73,0,22.98,0.31,28.88,0.93
		v-69.25c-11.18-3.11-38.51-6.21-54.35-6.21c-83.54,0-122.05,39.44-122.05,124.53v32.92h-51.55v76.4h51.55v166.24
		c19.34,4.8,39.57,7.36,60.39,7.36c10.25,0,20.36-0.63,30.29-1.83V499.45H695.12z"/>
</g>
</svg>
